<svg xmlns="http://www.w3.org/2000/svg" id="lb-logo" viewBox="0 0 170 32" fill="white">
<path  fill-rule="evenodd" clip-rule="evenodd" d="M30.7473 9.7937C29.2081 6.13634 26.3648 3.1814 22.7694 1.50257C19.174 -0.176249 15.083 -0.459166 11.2907 0.708749C7.49846 1.87666 4.27547 4.41208 2.24749 7.82275C0.219509 11.2334 -0.468754 15.276 0.316324 19.1656C1.1014 23.0552 3.3038 26.5143 6.49594 28.8713C9.68807 31.2284 13.6422 32.3152 17.5906 31.9207C21.5389 31.5262 25.1999 29.6787 27.8626 26.7367C30.5254 23.7947 31.9999 19.9683 32 16.0002C32.003 13.8683 31.5769 11.7576 30.7473 9.7937V9.7937ZM2.42216 18.2675L2.39232 18.0689C2.30234 17.4651 2.25216 16.856 2.24209 16.2456L2.23695 15.9313L2.5482 15.973C6.78285 16.5376 10.908 17.7382 14.7843 19.5341L14.9407 19.6051V22.18L14.5508 21.9882C10.7934 20.1379 6.76782 18.8916 2.62229 18.2953L2.42216 18.2675ZM4.21765 22.942L4.0983 22.9173L4.03759 22.8113C3.67365 22.1719 3.36157 21.5044 3.10434 20.8152L2.94023 20.3768L3.40325 20.4561C7.38051 21.1344 11.2257 22.4366 14.7967 24.3146L14.9407 24.3897V27.0464L14.5374 26.8185C11.3188 25.0001 7.83742 23.6924 4.21765 22.942V22.942ZM14.5986 29.7098C11.6633 29.4082 8.90317 28.169 6.72723 26.1759L5.8408 25.3672L6.98755 25.7186C9.7169 26.5536 12.3311 27.7266 14.7694 29.2103L15.7896 29.8317L14.5986 29.7098ZM16.1826 17.8652L16.1271 17.8919H15.9162L15.8606 17.8652L15.8534 17.8616C11.6917 15.8761 7.24332 14.5585 2.67168 13.9573L2.39283 13.9203L2.44068 13.6435C2.99555 10.4437 4.66232 7.54258 7.1471 5.4516C9.63189 3.36062 12.7751 2.21405 16.0226 2.21405C19.2702 2.21405 22.4134 3.36062 24.8982 5.4516C27.383 7.54258 29.0497 10.4437 29.6046 13.6435L29.6525 13.9203L29.3736 13.9573C24.8029 14.5583 20.3554 15.8753 16.1945 17.8601L16.1826 17.8652ZM25.316 26.1759C23.1401 28.169 20.38 29.4082 17.4446 29.7098L16.2562 29.8317L17.2764 29.2103C19.7139 27.7266 22.3272 26.5534 25.0557 25.718L26.2024 25.3667L25.316 26.1759ZM28.9379 20.8146C28.6807 21.5039 28.3686 22.1714 28.0046 22.8108L27.9444 22.9168L27.8251 22.9415C24.2051 23.6922 20.7235 25.0002 17.5048 26.819L17.1015 27.0469V24.3897L17.2461 24.3135C20.817 22.4356 24.6622 21.1334 28.6395 20.455L29.1025 20.3758L28.9379 20.8146ZM29.8001 16.2456C29.7897 16.8559 29.7392 17.4648 29.6489 18.0684L29.619 18.267L29.4204 18.2958C25.2746 18.8926 21.2489 20.1394 17.4915 21.9902L17.1015 22.1821V19.6051L17.2558 19.5326C21.1332 17.7369 25.2594 16.5368 29.495 15.973L29.8068 15.9313L29.8001 16.2456Z"/>
<path d="M43.652 15.752C43.652 19.518 43.61 22.276 43.512 22.85C43.274 24.222 42 24.096 42 24.992C42 25.426 42.35 25.65 42.994 25.65C43.75 25.65 45.276 25.58 49.21 25.58C52.15 25.58 53.914 25.65 54.908 25.65C55.748 25.65 56.098 25.37 56.14 24.642C56.252 22.794 56.476 21.03 56.476 20.26C56.476 19.63 56.308 19.154 55.86 19.154C55.482 19.154 55.216 19.462 54.894 20.386C54.194 22.612 53.452 23.536 50.05 23.536C47.67 23.536 47.236 23.298 47.236 21.982V15.752C47.236 13.148 47.25 10.46 47.306 9.956C47.474 8.024 49.238 8.234 49.238 7.184C49.238 6.792 49.028 6.47 48.342 6.47C47.698 6.47 46.27 6.54 45.472 6.54C44.674 6.54 43.68 6.47 43.008 6.47C42.28 6.47 42.084 6.806 42.084 7.184C42.084 8.136 43.456 7.982 43.61 9.886C43.652 10.432 43.652 14.1 43.652 15.752Z"/>
<path d="M66.9417 20.106C66.9417 22.248 65.6117 23.676 63.7077 23.676C62.5037 23.676 61.6357 23.004 61.6357 21.842C61.6357 20.848 62.2937 19.868 63.7777 19.378C64.5757 19.126 65.5137 19.014 66.6757 19.014C66.8577 19.014 66.9417 19.266 66.9417 20.106ZM62.2797 18.062C59.8017 18.804 58.2057 20.232 58.2057 22.43C58.2057 24.67 60.0537 25.916 62.4197 25.916C64.0157 25.916 65.5277 25.244 66.4377 24.362C66.5497 24.25 66.6617 24.082 66.7597 24.082C66.8577 24.082 66.9417 24.194 66.9977 24.32C67.4177 25.342 68.2017 25.79 69.3917 25.79C70.7917 25.79 71.9117 24.81 71.9117 23.606C71.9117 23.284 71.7717 23.13 71.6597 23.13C71.4497 23.13 71.3097 23.242 70.9737 23.242C70.3577 23.242 70.1617 22.654 70.1617 22.038C70.1617 20.764 70.3157 18.608 70.3157 16.788C70.3157 13.162 67.9777 11.16 64.3657 11.16C60.9357 11.16 58.9477 12.91 58.9477 14.52C58.9477 15.752 59.8157 16.312 60.5997 16.312C61.3697 16.312 61.6497 15.864 61.8177 15.178C62.1257 13.89 62.8257 12.742 64.3237 12.742C66.1717 12.742 66.9277 14.198 66.9277 16.004C66.9277 16.886 66.7877 17.11 66.6337 17.222C66.2977 17.46 64.0997 17.544 62.2797 18.062Z"/>
<path d="M87.5654 16.676C87.5654 13.078 85.9414 11.174 82.9734 11.174C80.2434 11.174 78.5214 13.456 78.2274 13.456C77.9894 13.456 77.9334 12.742 77.7934 12.084C77.6534 11.482 77.4014 11.3 76.9674 11.3C76.5054 11.3 76.0574 11.608 74.8954 12.112C73.9854 12.504 73.2574 12.616 73.2574 13.232C73.2574 13.568 73.5094 13.75 73.8034 13.89C74.2934 14.072 74.7554 14.352 74.7554 15.08V22.066C74.7554 22.78 74.6434 23.382 73.9574 23.998C73.6914 24.222 73.2014 24.46 73.2014 24.992C73.2014 25.342 73.3974 25.65 74.0694 25.65C74.9794 25.65 75.6374 25.58 76.4634 25.58C77.1774 25.58 77.7934 25.65 78.5494 25.65C79.3054 25.65 79.5294 25.356 79.5294 24.95C79.5294 24.404 79.0674 24.32 78.6614 23.956C78.2414 23.592 78.0734 23.2 78.0734 22.234V16.452C78.0734 15.038 79.7394 13.54 81.2654 13.54C83.0434 13.54 84.1074 14.856 84.1074 17.614C84.1074 20.358 83.7574 22.976 83.4914 23.802C83.3934 24.068 83.1694 24.544 83.1694 24.992C83.1694 25.342 83.3514 25.65 83.8974 25.65C84.5974 25.65 84.9894 25.58 85.8434 25.58C86.6134 25.58 87.1034 25.65 87.7334 25.65C88.4894 25.65 88.7834 25.37 88.7834 24.95C88.7834 24.418 88.3494 24.334 87.8314 23.998C87.3974 23.676 87.1734 23.116 87.1734 22.57C87.1734 21.646 87.5654 19.252 87.5654 16.676Z"/>
<path d="M97.2199 23.452C95.1199 23.452 93.8739 21.548 93.8739 18.258C93.8739 14.716 95.3579 13.134 97.1219 13.134C98.6479 13.134 100.342 14.408 100.342 18.426C100.342 22.108 98.9839 23.452 97.2199 23.452ZM102.89 25.79C104.276 25.79 105.41 24.81 105.41 23.606C105.41 23.284 105.256 23.13 105.144 23.13C104.934 23.13 104.808 23.242 104.458 23.242C103.842 23.242 103.604 22.654 103.604 22.038V10.67C103.604 7.394 103.73 7.03 103.73 5.854C103.73 5.266 103.436 5 102.932 5C102.386 5 101.686 5.476 100.37 5.994C99.4599 6.358 98.7459 6.484 98.7459 7.072C98.7459 7.408 99.0539 7.576 99.3479 7.73C99.8379 7.912 100.3 8.29 100.3 8.962V11.874C100.3 12.742 100.216 12.924 100.076 12.924C99.8379 12.924 98.8719 11.174 96.2819 11.174C93.0479 11.174 90.3179 13.82 90.3179 18.916C90.3179 23.62 92.9919 25.86 95.8339 25.86C97.7239 25.86 98.8859 25.034 99.5159 24.446C99.8379 24.152 100.006 23.928 100.132 23.928C100.272 23.928 100.356 24.11 100.468 24.306C100.986 25.398 101.742 25.79 102.89 25.79Z"/>
<path d="M107.97 21.338C107.97 24.194 107.76 24.698 107.76 25.384C107.76 25.776 107.97 26.014 108.334 26.014C108.768 26.014 109.104 25.44 109.594 24.894C109.944 24.502 110.308 24.418 110.756 24.418C111.358 24.418 112.604 25.86 114.76 25.86C118.4 25.86 121.256 23.144 121.256 18.118C121.256 13.918 119.156 11.174 115.88 11.174C112.912 11.174 111.694 13.526 111.386 13.526C111.274 13.526 111.19 13.344 111.19 12.812V10.53C111.19 7.884 111.414 6.624 111.414 5.854C111.414 5.252 111.092 5 110.616 5C110.028 5 109.496 5.462 108.068 5.994C107.046 6.386 106.458 6.526 106.458 7.072C106.458 7.422 106.738 7.576 107.018 7.73C107.522 7.926 107.97 8.234 107.97 8.906V21.338ZM114.536 13.484C116.328 13.484 117.7 15.066 117.7 18.636C117.7 22.276 116.16 23.914 114.41 23.914C112.716 23.914 111.232 22.682 111.232 18.51C111.232 15.038 112.884 13.484 114.536 13.484Z"/>
<path d="M129.532 13.008C130.68 13.008 131.842 13.778 132.654 15.346C133.256 16.55 133.634 18.244 133.634 19.714C133.634 22.57 132.136 23.746 130.498 23.746C129.35 23.746 128.09 23.116 127.306 21.548C126.69 20.288 126.508 18.692 126.508 17.474C126.508 14.408 127.894 13.008 129.532 13.008ZM122.924 18.622C122.924 22.822 125.696 25.86 130.022 25.86C133.886 25.86 137.078 23.536 137.078 18.874C137.078 13.96 133.662 11.174 129.84 11.174C125.836 11.174 122.924 14.226 122.924 18.622Z"/>
<path d="M145.282 13.008C146.43 13.008 147.592 13.778 148.404 15.346C149.006 16.55 149.384 18.244 149.384 19.714C149.384 22.57 147.886 23.746 146.248 23.746C145.1 23.746 143.84 23.116 143.056 21.548C142.44 20.288 142.258 18.692 142.258 17.474C142.258 14.408 143.644 13.008 145.282 13.008ZM138.674 18.622C138.674 22.822 141.446 25.86 145.772 25.86C149.636 25.86 152.828 23.536 152.828 18.874C152.828 13.96 149.412 11.174 145.59 11.174C141.586 11.174 138.674 14.226 138.674 18.622Z"/>
<path d="M159.118 21.282C159.118 20.19 159.23 19.644 159.93 19.644C160.322 19.644 161.414 20.05 162.52 21.226C163.374 22.164 163.948 23.144 163.948 23.802C163.948 24.306 163.444 24.53 163.444 24.978C163.444 25.426 163.808 25.678 164.34 25.678C164.816 25.678 165.922 25.594 166.748 25.594C167.504 25.594 168.624 25.65 169.17 25.65C169.73 25.65 169.828 25.16 169.828 24.95C169.828 24.39 169.142 24.04 169.03 23.942C167.126 22.668 166.482 19.14 162.576 17.656C162.478 17.628 162.408 17.572 162.408 17.488C162.408 17.418 162.45 17.376 162.576 17.278C164.396 15.864 166.328 14.114 167.322 13.442C168.05 12.952 168.834 12.63 168.834 12.07C168.834 11.482 168.316 11.384 167.896 11.384C167.252 11.384 166.37 11.468 165.614 11.468C164.844 11.468 164.172 11.398 163.444 11.398C163.052 11.398 162.632 11.566 162.632 12.098C162.632 12.658 163.57 13.134 163.57 13.652C163.57 14.59 159.874 17.698 159.384 17.698C159.272 17.698 159.16 17.628 159.16 16.074C159.16 8.766 159.342 7.03 159.342 5.854C159.342 5.266 159.048 5 158.544 5C157.998 5 157.326 5.476 156.01 5.994C155.1 6.358 154.386 6.484 154.386 7.072C154.386 7.408 154.666 7.576 154.96 7.73C155.45 7.912 155.898 8.234 155.898 8.878V22.066C155.898 22.78 155.786 23.382 155.1 23.998C154.834 24.222 154.344 24.46 154.344 24.992C154.344 25.342 154.54 25.65 155.212 25.65C156.108 25.65 156.766 25.58 157.606 25.58C158.292 25.58 159.216 25.65 159.846 25.65C160.602 25.65 160.826 25.314 160.826 24.95C160.826 24.432 160.308 24.334 159.972 24.04C159.356 23.522 159.118 23.004 159.118 21.282Z"/>
</svg>